<svg width="58" height="58" viewBox="0 0 58 58" fill="none" xmlns="http://www.w3.org/2000/svg">
<rect width="57.2281" height="57.2281" rx="5.36513" fill="#FF847C"/>
<path d="M38 19H20C19.7348 19 19.4804 19.1054 19.2929 19.2929C19.1054 19.4804 19 19.7348 19 20V38C19 38.2652 19.1054 38.5196 19.2929 38.7071C19.4804 38.8946 19.7348 39 20 39H38C38.2652 39 38.5196 38.8946 38.7071 38.7071C38.8946 38.5196 39 38.2652 39 38V20C39 19.7348 38.8946 19.4804 38.7071 19.2929C38.5196 19.1054 38.2652 19 38 19ZM25 37H21V33H25V37ZM25 31H21V27H25V31ZM25 25H21V21H25V25ZM31 37H27V33H31V37ZM31 31H27V27H31V31ZM31 25H27V21H31V25ZM37 37H33V33H37V37ZM37 31H33V27H37V31ZM37 25H33V21H37V25Z" fill="#F0FDF4"/>
</svg>
