<svg width="58" height="58" viewBox="0 0 58 58" fill="none" xmlns="http://www.w3.org/2000/svg">
<rect width="57.2281" height="57.2281" rx="5.36513" fill="#FF847C"/>
<g clip-path="url(#clip0_0_1)">
<path d="M33.085 37.225H22.3547C21.6433 37.225 20.961 36.9424 20.4579 36.4393C19.9548 35.9362 19.6722 35.2539 19.6722 34.5425V27.389C19.6722 27.1518 19.578 26.9244 19.4103 26.7567C19.2426 26.589 19.0151 26.4948 18.778 26.4948C18.5408 26.4948 18.3134 26.589 18.1457 26.7567C17.978 26.9244 17.8838 27.1518 17.8838 27.389V34.5425C17.8838 35.7282 18.3548 36.8654 19.1933 37.7039C20.0318 38.5424 21.169 39.0134 22.3547 39.0134H33.085C33.3222 39.0134 33.5496 38.9192 33.7173 38.7515C33.885 38.5838 33.9792 38.3564 33.9792 38.1192C33.9792 37.8821 33.885 37.6546 33.7173 37.4869C33.5496 37.3192 33.3222 37.225 33.085 37.225ZM36.6618 21.1296H24.1431C23.4316 21.1296 22.7493 21.4123 22.2462 21.9153C21.7432 22.4184 21.4605 23.1007 21.4605 23.8122V32.7541C21.4605 33.4656 21.7432 34.1479 22.2462 34.651C22.7493 35.154 23.4316 35.4367 24.1431 35.4367H36.6618C37.3732 35.4367 38.0555 35.154 38.5586 34.651C39.0617 34.1479 39.3443 33.4656 39.3443 32.7541V23.8122C39.3443 23.1007 39.0617 22.4184 38.5586 21.9153C38.0555 21.4123 37.3732 21.1296 36.6618 21.1296ZM36.2951 22.918L31.0373 28.1758C30.9542 28.2597 30.8553 28.3262 30.7463 28.3716C30.6374 28.417 30.5205 28.4403 30.4024 28.4403C30.2844 28.4403 30.1675 28.417 30.0585 28.3716C29.9496 28.3262 29.8507 28.2597 29.7676 28.1758L24.5097 22.918H36.2951ZM37.5559 32.7541C37.5559 32.9912 37.4617 33.2187 37.294 33.3864C37.1263 33.5541 36.8989 33.6483 36.6618 33.6483H24.1431C23.906 33.6483 23.6785 33.5541 23.5108 33.3864C23.3431 33.2187 23.2489 32.9912 23.2489 32.7541V24.1431L28.5068 29.4009C29.0097 29.9032 29.6915 30.1854 30.4024 30.1854C31.1133 30.1854 31.7951 29.9032 32.2981 29.4009L37.5559 24.1431V32.7541Z" fill="white"/>
</g>
<defs>
<clipPath id="clip0_0_1">
<rect width="21.4605" height="21.4605" fill="white" transform="translate(17.8838 17.8838)"/>
</clipPath>
</defs>
</svg>
