<svg width="155" height="140" viewBox="0 0 155 140" fill="none" xmlns="http://www.w3.org/2000/svg">
<path d="M141.158 13.0059C132.772 4.61752 121.621 0.00204579 109.766 0.00204579C100.337 0.00204579 91.2366 2.99382 83.6805 8.47022L114.686 39.4759L108.445 45.7151L74.0937 11.3598C65.9221 4.03879 55.3762 0 44.3907 0C32.534 0 21.3849 4.61752 12.9985 13.0039C-3.62496 29.6274 -4.39796 56.3754 11.2214 73.9539L77.0773 140L142.931 73.9539C158.551 56.3775 157.78 29.6294 141.158 13.0059ZM62.2064 53.4409H53.9018V61.7455C53.9018 66.2526 50.2475 69.9049 45.7404 69.9049C41.2333 69.9049 37.581 66.2526 37.581 61.7455V53.4409H29.2764C24.7693 53.4409 21.115 49.7866 21.115 45.2795C21.115 40.7724 24.7693 37.1201 29.2764 37.1201H37.581V28.8135C37.581 24.3084 41.2333 20.6541 45.7404 20.6541C50.2475 20.6541 53.9018 24.3084 53.9018 28.8135V37.1201H62.2064C66.7135 37.1201 70.3678 40.7724 70.3678 45.2795C70.3678 49.7866 66.7135 53.4409 62.2064 53.4409Z" fill="#FF847C"/>
</svg>
