<svg xmlns="http://www.w3.org/2000/svg" width="180" height="31" viewBox="0 0 180 31" fill="none">
<g clip-path="url(#clip0_4_14272)">
<path d="M31.1832 2.87314C29.3306 1.02005 26.8672 0.000451934 24.2484 0.000451934C22.1653 0.000451934 20.155 0.661363 18.4858 1.87115L25.3353 8.72061L23.9565 10.0989L16.368 2.50948C14.5628 0.892208 12.2331 0 9.80633 0C7.18708 0 4.72413 1.02005 2.8715 2.87269C-0.800788 6.54497 -0.971551 12.4539 2.47893 16.3371L17.0271 30.9273L31.5749 16.3371C35.0253 12.4543 34.855 6.54542 31.1832 2.87314ZM13.742 11.8056H11.9074V13.6402C11.9074 14.6358 11.1001 15.4427 10.1045 15.4427C9.10883 15.4427 8.302 14.6358 8.302 13.6402V11.8056H6.46744C5.47178 11.8056 4.6645 10.9983 4.6645 10.0027C4.6645 9.00702 5.47178 8.20019 6.46744 8.20019H8.302V6.36517C8.302 5.36997 9.10883 4.56269 10.1045 4.56269C11.1001 4.56269 11.9074 5.36997 11.9074 6.36517V8.20019H13.742C14.7376 8.20019 15.5449 9.00702 15.5449 10.0027C15.5449 10.9983 14.7376 11.8056 13.742 11.8056Z" fill="#FF847C"/>
<path d="M50.4889 15.4318C50.145 14.5476 49.6292 14.2528 49.0643 14.2528C48.5486 14.2528 48.0328 14.5476 48.0328 15.0388C48.0328 15.5054 48.3275 15.7756 48.8924 15.9721L50.5135 16.537C52.331 17.2002 54.1731 17.8633 54.1731 20.4177C54.1731 22.9966 51.5941 24.4703 48.9415 24.4703C46.5591 24.4703 44.324 23.0703 43.7837 20.8352L46.8293 19.8773C47.1486 20.5896 47.7135 21.4001 48.9415 21.4001C49.7766 21.4001 50.317 20.8598 50.317 20.3686C50.317 20.1229 50.1205 19.8036 49.5064 19.558L48.0082 19.0177C45.4539 18.0844 44.2504 16.7826 44.2504 14.9651C44.2504 12.5827 46.4609 11.1827 48.8924 11.1827C51.3731 11.1827 53.0187 12.5335 53.7555 14.5721L50.4889 15.4318ZM62.4993 11.1827C65.3975 11.1827 69.2291 13.3686 69.2291 17.8388C69.2291 22.3334 65.3975 24.4211 62.4993 24.4211C59.6011 24.4211 55.7695 22.3334 55.7695 17.8388C55.7695 13.3686 59.6011 11.1827 62.4993 11.1827ZM62.4993 14.5967C61.0256 14.5967 59.5274 15.7265 59.5274 17.8388C59.5274 19.8773 61.0256 21.0071 62.4993 21.0071C63.973 21.0071 65.4958 19.8773 65.4958 17.8388C65.4958 15.7265 63.973 14.5967 62.4993 14.5967ZM76.0079 24.372C73.6255 24.372 71.194 22.7755 71.194 18.723V11.4037H75.0746V18.4528C75.0746 20.3931 75.7378 21.0071 76.9658 21.0071C78.7097 21.0071 79.7167 19.3124 79.9623 18.5756V11.4037H83.8429V24.1755H79.9623V21.965C79.7167 22.5791 78.4149 24.372 76.0079 24.372ZM102.902 6.81079H106.783V13.0493V24.1755H102.902V22.8984C102.73 23.3405 101.576 24.4211 99.6112 24.4211C96.6884 24.4211 93.3236 22.3334 93.3236 17.7651C93.3236 13.3686 96.6884 11.1827 99.6112 11.1827C101.576 11.1827 102.73 12.3125 102.902 12.5827V6.81079ZM100.176 21.0071C101.773 21.0071 103.074 19.9019 103.074 17.7651C103.074 15.7019 101.773 14.5967 100.176 14.5967C98.506 14.5967 97.0814 15.7265 97.0814 17.7651C97.0814 19.8773 98.506 21.0071 100.176 21.0071ZM115.625 11.1827C118.523 11.1827 122.355 13.3686 122.355 17.8388C122.355 22.3334 118.523 24.4211 115.625 24.4211C112.727 24.4211 108.895 22.3334 108.895 17.8388C108.895 13.3686 112.727 11.1827 115.625 11.1827ZM115.625 14.5967C114.151 14.5967 112.653 15.7265 112.653 17.8388C112.653 19.8773 114.151 21.0071 115.625 21.0071C117.099 21.0071 118.622 19.8773 118.622 17.8388C118.622 15.7265 117.099 14.5967 115.625 14.5967ZM133.653 11.4037H137.534V24.1755H133.653V22.8984C133.481 23.3405 132.327 24.4211 130.362 24.4211C127.439 24.4211 124.074 22.3334 124.074 17.7651C124.074 13.3686 127.439 11.1827 130.362 11.1827C132.327 11.1827 133.481 12.3125 133.653 12.5827V11.4037ZM130.927 21.0071C132.523 21.0071 133.825 19.9019 133.825 17.7651C133.825 15.7019 132.523 14.5967 130.927 14.5967C129.257 14.5967 127.832 15.7265 127.832 17.7651C127.832 19.8773 129.257 21.0071 130.927 21.0071ZM149.225 6.81079H153.105V13.0493V24.1755H149.225V22.8984C149.053 23.3405 147.898 24.4211 145.934 24.4211C143.011 24.4211 139.646 22.3334 139.646 17.7651C139.646 13.3686 143.011 11.1827 145.934 11.1827C147.898 11.1827 149.053 12.3125 149.225 12.5827V6.81079ZM146.498 21.0071C148.095 21.0071 149.397 19.9019 149.397 17.7651C149.397 15.7019 148.095 14.5967 146.498 14.5967C144.828 14.5967 143.404 15.7265 143.404 17.7651C143.404 19.8773 144.828 21.0071 146.498 21.0071ZM161.947 11.1827C164.846 11.1827 168.677 13.3686 168.677 17.8388C168.677 22.3334 164.846 24.4211 161.947 24.4211C159.049 24.4211 155.218 22.3334 155.218 17.8388C155.218 13.3686 159.049 11.1827 161.947 11.1827ZM161.947 14.5967C160.474 14.5967 158.976 15.7265 158.976 17.8388C158.976 19.8773 160.474 21.0071 161.947 21.0071C163.421 21.0071 164.944 19.8773 164.944 17.8388C164.944 15.7265 163.421 14.5967 161.947 14.5967ZM178.993 11.2072C179.337 11.2072 179.681 11.2072 180 11.2809V14.9897C179.705 14.916 179.361 14.916 179.116 14.916C176.758 14.916 174.867 16.6107 174.67 18.9686V24.1755H170.789V11.4037H174.67V14.523C175.26 12.6072 176.733 11.2072 178.993 11.2072Z" fill="#FF847C"/>
</g>
<defs>
<clipPath id="clip0_4_14272">
<rect width="180" height="30.9273" fill="white"/>
</clipPath>
</defs>
</svg>