<svg width="58" height="58" viewBox="0 0 58 58" fill="none" xmlns="http://www.w3.org/2000/svg">
<rect width="57.2281" height="57.2281" rx="5.36513" fill="#FF847C"/>
<path d="M36.4077 30C36.1877 30 35.9577 29.93 35.7377 29.88C35.2926 29.7805 34.8548 29.6501 34.4277 29.49C33.9638 29.3212 33.4539 29.33 32.996 29.5146C32.5382 29.6992 32.1648 30.0466 31.9477 30.49L31.7277 30.95C30.7566 30.3992 29.8594 29.7271 29.0577 28.95C28.2806 28.1484 27.6085 27.2512 27.0577 26.28L27.5177 26.07C27.9611 25.8529 28.3085 25.4795 28.4931 25.0217C28.6777 24.5639 28.6865 24.0539 28.5177 23.59C28.3589 23.159 28.2286 22.7181 28.1277 22.27C28.0777 22.05 28.0377 21.82 28.0077 21.6C27.8863 20.8956 27.5174 20.2577 26.9674 19.8012C26.4173 19.3447 25.7224 19.0996 25.0077 19.11H21.9977C21.575 19.1094 21.1569 19.1982 20.7708 19.3706C20.3848 19.5429 20.0396 19.7949 19.7577 20.11C19.4701 20.4337 19.2558 20.8158 19.1298 21.23C19.0038 21.6443 18.969 22.081 19.0277 22.51C19.5713 26.6721 21.4729 30.5387 24.4377 33.51C27.4091 36.4748 31.2756 38.3764 35.4377 38.92C35.5675 38.9299 35.6979 38.9299 35.8277 38.92C36.5651 38.9211 37.2771 38.6505 37.8277 38.16C38.1428 37.8782 38.3948 37.5329 38.5671 37.1469C38.7395 36.7609 38.8283 36.3428 38.8277 35.92V32.92C38.8223 32.229 38.5786 31.5611 38.1377 31.0291C37.6967 30.4971 37.0857 30.1336 36.4077 30ZM36.8977 36C36.8974 36.1395 36.8679 36.2775 36.811 36.4049C36.7542 36.5324 36.6713 36.6465 36.5677 36.74C36.4581 36.8399 36.3277 36.9141 36.1859 36.9573C36.0441 37.0006 35.8944 37.0117 35.7477 36.99C32.016 36.5026 28.548 34.802 25.8777 32.15C23.2052 29.4775 21.4898 25.9974 20.9977 22.25C20.976 22.1033 20.9872 21.9537 21.0304 21.8119C21.0736 21.67 21.1479 21.5396 21.2477 21.43C21.3424 21.3252 21.4581 21.2415 21.5874 21.1847C21.7167 21.1278 21.8565 21.0989 21.9977 21.1H24.9977C25.2289 21.0944 25.4549 21.169 25.6372 21.3112C25.8195 21.4534 25.9469 21.6544 25.9977 21.88C25.9977 22.15 26.0877 22.43 26.1477 22.7C26.2633 23.2239 26.417 23.7386 26.6077 24.24L25.2077 24.9C24.9671 25.0105 24.7801 25.2119 24.6877 25.46C24.5877 25.7035 24.5877 25.9765 24.6877 26.22C26.1269 29.3028 28.605 31.7808 31.6877 33.22C31.9312 33.32 32.2043 33.32 32.4477 33.22C32.6959 33.1276 32.8973 32.9406 33.0077 32.7L33.6377 31.3C34.1536 31.4881 34.6815 31.6418 35.2177 31.76C35.4777 31.82 35.7577 31.87 36.0277 31.91C36.2533 31.9608 36.4543 32.0882 36.5965 32.2705C36.7387 32.4529 36.8134 32.6788 36.8077 32.91L36.8977 36ZM30.9977 19C30.7677 19 30.5277 19 30.2977 19C30.0325 19.0225 29.7871 19.1495 29.6155 19.353C29.4439 19.5565 29.3602 19.8198 29.3827 20.085C29.4053 20.3502 29.5323 20.5956 29.7357 20.7672C29.9392 20.9388 30.2025 21.0225 30.4677 21H30.9977C32.589 21 34.1152 21.6321 35.2404 22.7574C36.3656 23.8826 36.9977 25.4087 36.9977 27C36.9977 27.18 36.9977 27.35 36.9977 27.53C36.9756 27.7938 37.0589 28.0556 37.2295 28.2581C37.4001 28.4606 37.644 28.5871 37.9077 28.61H37.9877C38.2381 28.611 38.4797 28.5181 38.6648 28.3496C38.85 28.1811 38.9652 27.9493 38.9877 27.7C38.9877 27.47 38.9877 27.23 38.9877 27C38.9877 24.88 38.1462 22.8467 36.6481 21.3467C35.15 19.8467 33.1177 19.0027 30.9977 19ZM32.9977 27C32.9977 27.2652 33.1031 27.5196 33.2906 27.7071C33.4782 27.8946 33.7325 28 33.9977 28C34.2629 28 34.5173 27.8946 34.7048 27.7071C34.8924 27.5196 34.9977 27.2652 34.9977 27C34.9977 25.9391 34.5763 24.9217 33.8262 24.1716C33.076 23.4214 32.0586 23 30.9977 23C30.7325 23 30.4782 23.1054 30.2906 23.2929C30.1031 23.4804 29.9977 23.7348 29.9977 24C29.9977 24.2652 30.1031 24.5196 30.2906 24.7071C30.4782 24.8946 30.7325 25 30.9977 25C31.5282 25 32.0369 25.2107 32.4119 25.5858C32.787 25.9609 32.9977 26.4696 32.9977 27Z" fill="#F0FDF4"/>
</svg>
